# xmcd
# 
# Track frame offsets:
#     150
#     18035
#     34535
#     49355
#     65052
#     83462
#     104137
#     119112
#     130762
#     146907
#     169940
#     181650
#     205780
# 
# Disc length: 2816
# 
# Revision: 6
# Processed by: cddbd v1.5.2PL0 Copyright (c) Steve Scherf et al.
# Submitted via: fre:ac v1.0.17
# 
DISCID=b80afe0d
DTITLE=Milton Nascimento - Ao Vivo
DYEAR=1983
DGENRE=MPB
TTITLE0=Coração De Estudante
TTITLE1=A Noite Do Meu Bem
TTITLE2=Paisagem Da Janela
TTITLE3=Cuitelinho
TTITLE4=Caxangá
TTITLE5=Nos Bailes Da Vida
TTITLE6=Menestrel Das Alagoas
TTITLE7=Brasil
TTITLE8=Canção Do Novo Mundo
TTITLE9=Um Gosto De Sol
TTITLE10=Solar
TTITLE11=Para Lennon and McCartney
TTITLE12=Maria, Maria
EXTD=
EXTT0=
EXTT1=
EXTT2=
EXTT3=
EXTT4=
EXTT5=
EXTT6=
EXTT7=
EXTT8=
EXTT9=
EXTT10=
EXTT11=
EXTT12=Orquestrado
PLAYORDER=
